<svg width="514" height="512" viewBox="0 0 514 512" fill="none" xmlns="http://www.w3.org/2000/svg">
<mask id="mask0_1_42" style="mask-type:alpha" maskUnits="userSpaceOnUse" x="0" y="98" width="514" height="317">
<path fill-rule="evenodd" clip-rule="evenodd" d="M132.323 210.246L268.161 408.741C274.974 418.697 290.529 412.01 287.993 400.216L259.84 269.303H347.817C355.109 269.303 360.716 262.853 359.7 255.632L339.126 109.329C338.293 103.405 333.225 99 327.243 99H220.047C211.64 99 205.839 107.42 208.834 115.275L237.887 191.469H142.226C132.575 191.469 126.873 202.282 132.323 210.246ZM133.053 129.142C126.088 122.415 114.988 122.609 108.261 129.574L5.92102 235.55C2.57623 239.014 0.942491 243.5 1.00155 247.962C0.942386 252.424 2.57612 256.91 5.92102 260.374L107.812 365.885C114.539 372.851 125.639 373.044 132.605 366.318C139.57 359.591 139.764 348.491 133.037 341.525L42.6845 247.962L133.486 153.934C140.213 146.968 140.019 135.868 133.053 129.142ZM380.947 129.142C387.912 122.415 399.012 122.609 405.739 129.574L508.079 235.55C511.424 239.014 513.057 243.5 512.998 247.962C513.058 252.424 511.424 256.91 508.079 260.374L406.188 365.885C399.461 372.851 388.361 373.044 381.395 366.318C374.43 359.591 374.236 348.491 380.963 341.525L471.315 247.962L380.514 153.934C373.787 146.968 373.981 135.868 380.947 129.142Z" fill="white"/>
<path d="M268.161 408.741L268.574 408.459L268.574 408.459L268.161 408.741ZM132.323 210.246L132.735 209.964L132.735 209.964L132.323 210.246ZM287.993 400.216L288.482 400.111L288.482 400.111L287.993 400.216ZM259.84 269.303V268.803H259.221L259.351 269.408L259.84 269.303ZM359.7 255.632L360.195 255.563L360.195 255.563L359.7 255.632ZM339.126 109.329L338.631 109.399L338.631 109.399L339.126 109.329ZM208.834 115.275L208.367 115.453L208.367 115.453L208.834 115.275ZM237.887 191.469V191.969H238.613L238.354 191.291L237.887 191.469ZM108.261 129.574L108.62 129.922L108.62 129.922L108.261 129.574ZM133.053 129.142L132.706 129.501L132.706 129.501L133.053 129.142ZM5.92102 235.55L5.56135 235.203L5.56135 235.203L5.92102 235.55ZM1.00155 247.962L1.50168 247.968L1.50151 247.955L1.00155 247.962ZM5.92102 260.374L5.56135 260.721L5.56135 260.721L5.92102 260.374ZM107.812 365.885L108.172 365.537L108.172 365.537L107.812 365.885ZM132.605 366.318L132.257 365.958L132.257 365.958L132.605 366.318ZM133.037 341.525L132.678 341.872L132.678 341.872L133.037 341.525ZM42.6845 247.962L42.3249 247.615L41.9894 247.962L42.3249 248.309L42.6845 247.962ZM133.486 153.934L133.846 154.281L133.486 153.934ZM405.739 129.574L405.38 129.922L405.38 129.922L405.739 129.574ZM380.947 129.142L380.599 128.782L380.599 128.782L380.947 129.142ZM508.079 235.55L508.439 235.203L508.439 235.203L508.079 235.55ZM512.998 247.962L512.498 247.955L512.498 247.968L512.998 247.962ZM508.079 260.374L507.719 260.026L507.719 260.026L508.079 260.374ZM406.188 365.885L405.828 365.537L405.828 365.537L406.188 365.885ZM380.963 341.525L380.603 341.178L380.603 341.178L380.963 341.525ZM471.315 247.962L471.675 248.309L472.011 247.962L471.675 247.615L471.315 247.962ZM380.514 153.934L380.874 153.587L380.874 153.587L380.514 153.934ZM268.574 408.459L132.735 209.964L131.91 210.529L267.749 409.023L268.574 408.459ZM287.504 400.321C289.925 411.579 275.077 417.962 268.574 408.459L267.749 409.023C274.871 419.431 291.134 412.441 288.482 400.111L287.504 400.321ZM259.351 269.408L287.504 400.321L288.482 400.111L260.329 269.198L259.351 269.408ZM347.817 268.803H259.84V269.803H347.817V268.803ZM359.205 255.702C360.178 262.622 354.805 268.803 347.817 268.803V269.803C355.413 269.803 361.253 263.084 360.195 255.563L359.205 255.702ZM338.631 109.399L359.205 255.702L360.195 255.563L339.621 109.259L338.631 109.399ZM327.243 99.5C332.976 99.5 337.833 103.722 338.631 109.399L339.621 109.259C338.754 103.089 333.474 98.5 327.243 98.5V99.5ZM220.047 99.5H327.243V98.5H220.047V99.5ZM209.302 115.097C206.431 107.57 211.991 99.5 220.047 99.5V98.5C211.29 98.5 205.247 107.271 208.367 115.453L209.302 115.097ZM238.354 191.291L209.302 115.097L208.367 115.453L237.42 191.647L238.354 191.291ZM142.226 191.969H237.887V190.969H142.226V191.969ZM132.735 209.964C127.512 202.332 132.977 191.969 142.226 191.969V190.969C132.173 190.969 126.233 202.233 131.91 210.529L132.735 209.964ZM108.62 129.922C115.155 123.155 125.939 122.966 132.706 129.501L133.401 128.782C126.236 121.863 114.82 122.063 107.901 129.227L108.62 129.922ZM6.28069 235.898L108.62 129.922L107.901 129.227L5.56135 235.203L6.28069 235.898ZM1.50151 247.955C1.44412 243.62 3.03118 239.263 6.28069 235.898L5.56135 235.203C2.12128 238.765 0.44086 243.38 0.501594 247.968L1.50151 247.955ZM6.28069 260.026C3.03107 256.661 1.44402 252.304 1.50151 247.968L0.501595 247.955C0.440753 252.544 2.12117 257.159 5.56135 260.721L6.28069 260.026ZM108.172 365.537L6.28069 260.026L5.56135 260.721L107.452 366.232L108.172 365.537ZM132.257 365.958C125.49 372.493 114.707 372.305 108.172 365.537L107.452 366.232C114.371 373.397 125.787 373.596 132.952 366.677L132.257 365.958ZM132.678 341.872C139.213 348.639 139.024 359.423 132.257 365.958L132.952 366.677C140.116 359.759 140.316 348.342 133.397 341.178L132.678 341.872ZM42.3249 248.309L132.678 341.872L133.397 341.178L43.0442 247.615L42.3249 248.309ZM133.126 153.587L42.3249 247.615L43.0442 248.309L133.846 154.281L133.126 153.587ZM132.706 129.501C139.473 136.036 139.661 146.82 133.126 153.587L133.846 154.281C140.764 147.117 140.565 135.7 133.401 128.782L132.706 129.501ZM406.099 129.227C399.18 122.063 387.764 121.863 380.599 128.782L381.294 129.501C388.061 122.966 398.845 123.155 405.38 129.922L406.099 129.227ZM508.439 235.203L406.099 129.227L405.38 129.922L507.719 235.898L508.439 235.203ZM513.498 247.968C513.559 243.38 511.879 238.765 508.439 235.203L507.719 235.898C510.969 239.263 512.556 243.62 512.498 247.955L513.498 247.968ZM508.439 260.721C511.879 257.159 513.559 252.544 513.498 247.955L512.498 247.968C512.556 252.304 510.969 256.661 507.719 260.026L508.439 260.721ZM406.548 366.232L508.439 260.721L507.719 260.026L405.828 365.537L406.548 366.232ZM381.048 366.677C388.213 373.596 399.629 373.397 406.548 366.232L405.828 365.537C399.293 372.305 388.51 372.493 381.743 365.958L381.048 366.677ZM380.603 341.178C373.684 348.342 373.884 359.759 381.048 366.677L381.743 365.958C374.976 359.423 374.787 348.639 381.322 341.872L380.603 341.178ZM470.956 247.615L380.603 341.178L381.322 341.872L471.675 248.309L470.956 247.615ZM380.154 154.281L470.956 248.309L471.675 247.615L380.874 153.587L380.154 154.281ZM380.599 128.782C373.435 135.7 373.236 147.117 380.154 154.281L380.874 153.587C374.339 146.82 374.527 136.036 381.294 129.501L380.599 128.782Z" fill="white"/>
</mask>
<g mask="url(#mask0_1_42)">
<rect x="0.54422" y="98.5" width="513" height="315" fill="url(#paint0_linear_1_42)"/>
</g>
<defs>
<linearGradient id="paint0_linear_1_42" x1="257.044" y1="98.5" x2="257.044" y2="413.5" gradientUnits="userSpaceOnUse">
<stop stop-color="#2A94EA"/>
<stop offset="1" stop-color="#22D5B8"/>
</linearGradient>
</defs>
</svg>
