<svg width="512" height="512" viewBox="0 0 512 512" fill="none" xmlns="http://www.w3.org/2000/svg">
<g opacity="0.9">
<path fill-rule="evenodd" clip-rule="evenodd" d="M79.4337 68.897C60.7639 75.6765 48.1406 85.7626 41.7603 98.9989C37.2984 108.255 37.16 109.38 37.1765 136.195C37.1956 166.481 36.6869 171.004 32.2381 180.093C28.28 188.178 23.1408 192.052 15.3274 192.839C7.70112 193.608 2.9613 196.692 0.830172 202.272C-0.52749 205.828 -0.157168 214.57 1.48384 217.698C4.10016 222.684 9.73762 225.599 16.8443 225.641C23.1605 225.678 30.5664 232.595 33.7845 241.461C36.7257 249.563 36.787 250.279 36.9921 278.993C37.1699 303.766 37.2694 306.162 38.2918 310.172C42.6985 327.463 56.4486 340.735 78.4841 348.966C82.9241 350.624 84.477 350.962 86.7865 350.77C92.4463 350.301 95.4412 346.27 96.0544 338.295C96.3689 334.203 96.2639 333.303 95.1792 330.781C93.5174 326.919 88.0698 321.807 84.2708 320.545C76.8474 318.08 70.8052 311.725 67.4767 302.882C64.5983 295.235 64.4556 293.741 64.0349 266.928C63.6564 242.819 63.588 241.605 62.3966 237.937C60.5308 232.189 57.6831 227.155 54.0636 223.205C50.7903 219.633 45.1583 215.498 41.5043 213.984C38.0511 212.554 36.7388 209.251 38.579 206.624C39.0406 205.966 41.4404 204.38 43.9123 203.102C52.4953 198.662 59.125 190.558 62.401 180.502C63.5984 176.826 63.6624 175.688 64.0032 152.058C64.3839 125.622 64.6279 123.126 67.5937 115.245C70.4589 107.634 76.8622 100.441 82.5948 98.3944C86.6951 96.9307 87.6037 96.3793 90.848 93.3867C94.979 89.5752 96.2699 86.7691 96.2699 81.5999C96.2699 73.7472 93.5611 68.9189 88.4319 67.6269C85.134 66.7965 85.2718 66.7774 79.4337 68.897ZM421.313 68.1585C418.039 69.7787 416.404 72.7736 415.692 78.4591C414.848 85.1882 415.804 87.99 420.552 92.7024C423.391 95.5194 424.948 96.5921 427.578 97.5384C436.887 100.89 443.704 109.844 446.442 122.316C447.444 126.882 447.611 130.168 447.965 152.331C448.408 180.108 448.318 179.414 452.544 187.613C455.293 192.944 461.383 199.276 466.487 202.108C472.177 205.266 473.391 206.176 473.92 207.68C474.845 210.311 473.478 212.273 469.125 214.559C458.375 220.205 451.855 228.511 449.056 240.125C448.114 244.036 448.001 246.649 447.993 264.74C447.985 286.037 447.58 292.227 445.764 298.902C443.36 307.735 437.347 315.926 430.907 319.145C429.077 320.059 427.221 320.807 426.783 320.807C425.484 320.807 420.738 324.578 418.734 327.202C416.086 330.671 415.535 332.785 415.848 338.27C416.134 343.294 417.247 346.311 419.633 348.531C422.695 351.379 426.383 351.572 432.766 349.218C451.636 342.261 464.543 331.774 470.737 318.367C474.733 309.718 474.863 308.571 474.81 282.513C474.782 268.723 475.011 257.038 475.372 253.798C476.499 243.693 480.412 234.513 485.497 230.049C488.565 227.355 491.575 226.12 496.893 225.373C504.556 224.297 508.115 222.304 510.484 217.765C511.908 215.037 512.519 205.632 511.478 202.479C509.592 196.763 504.906 193.63 497.029 192.817C486.73 191.755 480.149 184.906 476.566 171.519C475.172 166.31 475.162 166.115 474.835 138.109L474.506 109.939L472.714 104.742C468.11 91.3885 458.383 81.0201 443.348 73.4409C436.463 69.9697 428.313 66.9995 425.676 67C424.563 67 422.599 67.5213 421.313 68.1585ZM157.534 81.5868C129.125 84.4071 105.8 99.7297 92.3096 124.434C87.5042 133.233 84.1663 144.621 83.1692 155.613C82.4209 163.864 82.4105 257.062 83.1566 265.56C84.8244 284.545 92.8424 301.945 106.116 315.386C116.615 326.018 127.956 332.736 142.487 336.932C152.943 339.951 152.972 339.952 254.509 339.952C315.871 339.952 349.758 339.756 353.247 339.379C367.687 337.821 382.021 332.263 393.312 323.842C399.068 319.55 407.905 310.435 411.798 304.776C417.713 296.177 422.074 285.932 424.577 274.758L425.84 269.116V210.587V152.058L424.569 146.379C421.081 130.803 414.295 117.839 403.96 107.012C389.789 92.1664 373.029 83.9176 352.681 81.7739C348.044 81.2854 162.363 81.1071 157.534 81.5868ZM120.532 154.564C123.583 155.411 127.199 158.975 128.447 162.365C129.019 163.916 133.123 175.893 137.568 188.98C142.014 202.067 145.74 212.877 145.849 213.003C145.958 213.128 146.156 213.121 146.289 212.989C146.423 212.856 150.502 200.691 155.356 185.957C161.071 168.608 164.658 158.542 165.535 157.39C167.459 154.866 169.526 153.972 173.442 153.972C177.368 153.972 179.818 155.187 181.552 157.992C182.156 158.97 186.557 171.647 191.332 186.165C196.108 200.684 200.221 212.61 200.473 212.669C201.01 212.793 200.415 214.618 209.525 184.878C213.488 171.941 217.05 160.741 217.442 159.989C218.366 158.215 220.803 155.969 223.011 154.855C225.253 153.724 229.866 153.722 232.242 154.849C236.717 156.973 240.09 163.41 239.393 168.496C239.218 169.775 234.25 186.537 228.354 205.746C222.458 224.955 216.505 244.364 215.125 248.877C213.745 253.389 212.181 257.956 211.649 259.025C209.334 263.677 204.11 266.511 199.204 265.778C196.053 265.306 192.015 262.522 190.558 259.817C189.909 258.613 185.882 246.183 181.608 232.193C177.334 218.204 173.664 206.572 173.452 206.346C173.016 205.881 172.951 206.081 164.737 233.014C161.435 243.844 158.557 253.813 158.342 255.167C157.665 259.44 154.845 263.533 151.302 265.388C149.233 266.471 143.932 266.455 141.812 265.36C138.816 263.81 135.753 259.72 134.541 255.65C133.928 253.592 127.141 233.381 119.457 210.735C106.297 171.948 105.503 169.382 105.746 166.455C106.211 160.879 109.421 156.456 114.258 154.727C116.712 153.85 117.854 153.82 120.532 154.564ZM376.809 155.044C386.377 157.017 398.337 164.161 400.883 169.421C402.337 172.423 402.378 176.436 400.985 179.502C399.517 182.735 396.041 184.058 393.306 184.331C389.751 184.331 388.593 184.116 385.088 181.894C376.837 176.664 370.158 174.391 364.714 174.96C357.338 175.73 353.167 180.485 354.145 187.009C354.889 191.971 357.773 194.021 370.655 198.751C381.473 202.723 384.437 204.123 389.371 207.587C396.067 212.289 400.565 219.374 402.29 227.931C403.299 232.939 403.344 235.308 402.531 240.567C400.445 254.061 391.737 263.52 378.735 266.412C373.073 267.672 361.941 267.263 356.134 265.583C348.504 263.375 341.166 259.418 335.573 254.496C329.358 249.025 328.525 239.844 333.875 235.764C335.495 234.528 336.371 234.274 338.909 234.305C343.112 234.355 343.712 234.604 348.713 238.369C357.995 245.359 367.665 247.957 375.615 245.596C380.769 244.065 383.447 240.593 383.447 235.443C383.447 228.576 380.339 226.2 364.401 220.883C345.146 214.459 338.65 209.25 335.536 197.732C334.221 192.87 334.219 182.368 335.532 177.493C338.671 165.841 346.937 157.539 358.087 154.839C362.748 153.711 370.778 153.799 376.809 155.044ZM293.288 159.421C311.779 163.511 325.713 176.911 330.925 195.619C336.733 216.464 329.804 239.961 314.113 252.633C307.141 258.264 298.372 262.019 289.076 263.357C286.286 263.758 278.369 263.923 267.122 263.815L249.717 263.373H248.897C245.341 263.373 243.166 259.602 243.153 258.176C242.892 256.047 243.136 255.395 242.975 212.228C242.862 181.687 242.994 167.291 243.401 165.894C244.095 163.508 246.255 160.79 248.587 159.367C250.126 158.429 251.701 158.353 269.397 158.362C286.234 158.371 289.114 158.499 293.288 159.421ZM265.841 212.228C265.841 228.624 265.951 242.039 266.085 242.039C266.306 242.039 306.293 220.085 309.664 218.112C312.885 216.228 314.007 211.227 311.875 208.258C311.161 207.263 303.352 202.658 288.693 194.587C276.535 187.893 266.42 182.416 266.214 182.416C266.009 182.416 265.841 195.831 265.841 212.228ZM249.975 359.028C245.182 360.601 241.705 364.123 240.346 368.784C238.708 374.402 238.76 374.519 257.948 407.674C267.47 424.128 275.897 438.27 276.674 439.099C280.069 442.722 286.37 444.299 291.059 442.701C298.155 440.282 302.415 432.31 300.155 425.678C299.695 424.33 294.697 415.26 289.046 405.521C283.395 395.782 275.709 382.522 271.967 376.054C268.224 369.586 264.637 363.716 263.997 363.011C261.754 360.539 258.348 358.979 254.743 358.773C252.875 358.666 250.729 358.781 249.975 359.028ZM233.184 383.835C232.887 384.219 227.254 393.994 220.667 405.558L208.69 426.583L208.502 430.446C208.335 433.849 208.5 434.666 209.887 437.308C214.416 445.934 225.673 447.545 232.272 440.511C233.215 439.507 237.482 432.337 241.757 424.579L249.529 410.472L243.351 399.69C233.907 383.211 233.799 383.042 233.184 383.835Z" fill="#00AAFF"/>
</g>
</svg>
